<svg width="371" height="109" viewBox="0 0 371 109" fill="none" xmlns="http://www.w3.org/2000/svg">
<rect y="30.1846" width="21.5343" height="55.3385" rx="10" fill="#000"/>
<rect y="51.9846" width="21.8" height="64.6031" rx="10" transform="rotate(-90 0 51.9846)" fill="#000"/>
<rect y="21.8" width="21.8" height="64.6031" rx="10" transform="rotate(-90 0 21.8)" fill="#000"/>
<rect x="79.5115" y="30.1846" width="21.5344" height="55.3385" rx="10" fill="#000"/>
<rect x="117.611" y="30.1846" width="21.5344" height="55.3385" rx="10" fill="#000"/>
<rect x="155.71" y="30.1846" width="21.5343" height="78.8154" rx="10" fill="#000"/>
<ellipse rx="10.6831" ry="10.8149" transform="matrix(0.999956 -0.0094029 0.00917514 0.999958 90.2933 10.9149)" fill="#000"/>
<ellipse rx="10.6831" ry="10.8149" transform="matrix(0.999956 -0.00940289 0.00917515 0.999958 128.393 10.9149)" fill="#000"/>
<path d="M169.429 58.6923C164.597 58.6923 160.552 54.6877 161.996 50.0765C162.793 47.5313 163.944 45.0985 165.425 42.8543C168.52 38.1662 172.918 34.5123 178.063 32.3546C183.209 30.197 188.871 29.6324 194.333 30.7324C199.796 31.8324 204.814 34.5475 208.752 38.5343C212.69 42.5212 215.372 47.6008 216.459 53.1308C217.545 58.6607 216.988 64.3927 214.856 69.6018C212.725 74.8109 209.116 79.2631 204.485 82.3956C202.259 83.9013 199.845 85.0696 197.319 85.8769C192.787 87.3259 188.84 83.3423 188.84 78.5836V78.5836C188.84 73.9065 193.22 70.1826 196.178 66.5602C196.936 65.632 197.581 64.4656 198 63C198.474 61.1051 199.396 54.7222 195.098 51.505C194.611 51.1402 194.109 50.7893 193.612 50.438C191.219 48.7477 187.517 47.7413 183 50C182.164 50.418 181.454 50.9392 180.851 51.5174C177.56 54.6727 173.988 58.6923 169.429 58.6923V58.6923Z" fill="#000"/>
<path d="M234 109V81.1539C234 79.1305 236.661 78.3867 237.71 80.1167L245.674 93.2474C246.432 94.4973 248.232 94.5381 249.046 93.3239L258.339 79.4614C259.439 77.82 262 78.5989 262 80.5751V109" stroke="#000" stroke-width="8"/>
<path d="M295 105H279C277.895 105 277 104.105 277 103V92M277 92V81C277 79.8954 277.895 79 279 79H295M277 92H295" stroke="#000" stroke-width="8"/>
<path d="M308 109V80.6853C308 78.6996 310.581 77.9275 311.671 79.5869L327.329 103.413C328.419 105.073 331 104.3 331 102.315V74" stroke="#000" stroke-width="8"/>
<path d="M346 74V96.4483C346 96.4483 346 96.4483 346 96.4483C346 96.4483 346 105 355.966 105C365.237 105 366.808 97.6 366.982 96.5674C366.996 96.4857 367 96.4067 367 96.3239V74" stroke="#000" stroke-width="8"/>
</svg>
