<svg xmlns="http://www.w3.org/2000/svg" width="12" height="15" viewBox="0 0 12 15" fill="none">
<path d="M10.6641 0C10.4755 0 10.2947 0.0759616 10.1614 0.211174C10.028 0.346387 9.95312 0.529774 9.95312 0.720994V4.65762L9.24219 5.14069V0.720994C9.24219 0.529774 9.16729 0.346387 9.03396 0.211174C8.90063 0.0759616 8.7198 0 8.53125 0C8.3427 0 8.16187 0.0759616 8.02854 0.211174C7.89521 0.346387 7.82031 0.529774 7.82031 0.720994V5.14069L7.10938 4.65762V0.720994C7.10938 0.529774 7.03447 0.346387 6.90115 0.211174C6.76782 0.0759616 6.58699 0 6.39844 0C6.20989 0 6.02906 0.0759616 5.89573 0.211174C5.7624 0.346387 5.6875 0.529774 5.6875 0.720994V5.04696C5.68811 5.16571 5.71763 5.28247 5.77344 5.38687C5.82925 5.49127 5.90962 5.58007 6.00742 5.64538L7.82031 6.87828V13.6989C7.82031 13.8901 7.89521 14.0735 8.02854 14.2087C8.16187 14.3439 8.3427 14.4199 8.53125 14.4199C8.7198 14.4199 8.90063 14.3439 9.03396 14.2087C9.16729 14.0735 9.24219 13.8901 9.24219 13.6989V6.87828L11.0551 5.64538C11.1529 5.58007 11.2332 5.49127 11.2891 5.38687C11.3449 5.28247 11.3744 5.16571 11.375 5.04696V0.720994C11.375 0.529774 11.3001 0.346387 11.1668 0.211174C11.0334 0.0759616 10.8526 0 10.6641 0ZM3.55469 0C2.61193 0 1.70778 0.379808 1.04114 1.05587C0.374511 1.73193 0 2.64887 0 3.60497V7.93093C0 8.12215 0.0749023 8.30554 0.208229 8.44075C0.341556 8.57596 0.522385 8.65193 0.710938 8.65193H2.84375V13.6989C2.84375 13.8901 2.91865 14.0735 3.05198 14.2087C3.18531 14.3439 3.36614 14.4199 3.55469 14.4199C3.74324 14.4199 3.92407 14.3439 4.0574 14.2087C4.19072 14.0735 4.26562 13.8901 4.26562 13.6989V0.720994C4.26562 0.529774 4.19072 0.346387 4.0574 0.211174C3.92407 0.0759616 3.74324 0 3.55469 0ZM2.84375 7.20994H1.42188V3.60497C1.42164 3.15748 1.55827 2.72094 1.81293 2.3555C2.06759 1.99006 2.42774 1.71372 2.84375 1.56456V7.20994Z" fill="#7F8F9F"/>
</svg>