<svg width="16" height="16" viewBox="0 0 16 16" fill="none" xmlns="http://www.w3.org/2000/svg"><path d="M8 0C3.58261 0 0 3.58261 0 8C0 12.4174 3.58261 16 8 16C12.4174 16 16 12.4174 16 8C16 3.58261 12.4174 0 8 0ZM8 14.6087C4.34783 14.6087 1.3913 11.6522 1.3913 8C1.3913 4.34783 4.34783 1.3913 8 1.3913C11.6522 1.3913 14.6087 4.34783 14.6087 8C14.6087 11.6522 11.6522 14.6087 8 14.6087ZM10.6609 9.66957C10.9391 9.94783 10.9391 10.3826 10.6609 10.6609C10.5217 10.8 10.3478 10.8696 10.1739 10.8696C10 10.8696 9.82609 10.8 9.68696 10.6609L7.51304 8.48696C7.37391 8.36522 7.30435 8.1913 7.30435 8V3.86087C7.30435 3.47826 7.61739 3.16522 8 3.16522C8.38261 3.16522 8.69565 3.47826 8.69565 3.86087V7.72174L10.6609 9.66957Z" fill="rgb(127, 143, 159)"></path></svg>