<svg width="16" height="16" viewBox="0 0 12 16" fill="none" xmlns="http://www.w3.org/2000/svg"><path d="M9.89552 1.37391C8.90422 0.486957 7.51292 0 5.99987 0C4.48683 0 3.09552 0.486957 2.10422 1.37391C0.886829 2.45217 0.260742 4.06957 0.260742 6.08696C0.260742 10.4522 5.28683 15.5826 5.51292 15.7913C5.65205 15.9304 5.82596 16 5.99987 16C6.17379 16 6.36509 15.9304 6.48683 15.7913C6.71292 15.5826 11.739 10.4522 11.739 6.08696C11.739 4.06957 11.1129 2.45217 9.89552 1.37391ZM5.99987 14.2783C5.53031 13.7565 4.78248 12.887 4.05205 11.8435C2.48683 9.61739 1.65205 7.63478 1.65205 6.08696C1.65205 1.73913 4.97379 1.3913 5.99987 1.3913C10.0347 1.3913 10.3477 4.9913 10.3477 6.08696C10.3477 9.14783 7.23465 12.9217 5.99987 14.2783ZM5.99987 3.0087C4.46944 3.0087 3.23466 4.27826 3.23466 5.82609C3.23466 7.37391 4.46944 8.62609 5.99987 8.62609C7.53031 8.62609 8.76509 7.35652 8.76509 5.8087C8.76509 4.26087 7.53031 3.0087 5.99987 3.0087ZM5.99987 7.4087C5.1477 7.4087 4.45205 6.69565 4.45205 5.8087C4.45205 4.92174 5.1477 4.2087 5.99987 4.2087C6.85205 4.2087 7.5477 4.92174 7.5477 5.8087C7.5477 6.69565 6.85205 7.4087 5.99987 7.4087Z" fill="#7F8F9F"></path></svg>