<svg width="299" height="387" viewBox="0 0 299 387" fill="none" xmlns="http://www.w3.org/2000/svg">
<path d="M71.2501 19.0624C38.3726 38.0426 14.8526 68.6944 5.02765 105.364C-4.79937 142.034 0.245745 180.338 19.226 213.215C44.5421 257.061 91.7464 284.299 142.423 284.299C158.424 284.299 174.3 281.545 189.351 276.26L253.287 387L298.874 360.679L234.949 249.959C256.542 231.484 272.088 206.98 279.603 178.935C289.428 142.266 284.383 103.964 265.403 71.0843C240.089 27.2386 192.882 0 142.208 0C117.387 0 92.8497 6.59066 71.2501 19.0624ZM219.816 97.4049C231.767 118.105 234.943 142.223 228.756 165.312C222.57 188.4 207.761 207.698 187.06 219.65C173.454 227.506 158.017 231.658 142.423 231.658C110.495 231.658 80.757 214.506 64.8152 186.895C52.8636 166.194 49.6883 142.078 55.8768 118.988C62.0631 95.8993 76.8721 76.6011 97.5727 64.6474C111.177 56.7934 126.614 52.641 142.208 52.641C174.138 52.641 203.874 69.7936 219.816 97.4049Z" fill="white"/>
</svg>
