<svg width="294" height="186" viewBox="0 0 294 186" fill="none" xmlns="http://www.w3.org/2000/svg">
<g clip-path="url(#clip0)">
<path d="M259.901 122.865C258.477 135.072 255.518 144.872 251.456 152.689C246.052 163.103 236.808 167.299 228.55 171.69C226.164 172.956 223.683 174.035 221.13 174.918C206.103 180.136 189.284 178.752 176.073 175.997C166.807 174.063 157.401 172.873 147.946 172.439C145.249 172.317 142.549 172.257 139.847 172.257C135.68 172.263 60.6537 173.688 42.3868 136.686C37.8768 127.558 34.7855 116.408 33.6749 102.817C30.5322 64.3931 47.8047 39.1574 70.0844 22.6625C112.231 -8.54015 170.001 -7.23159 211.526 24.793C239.186 46.1247 265.084 78.4088 259.901 122.865Z" fill="#3F3D56"/>
<path d="M251.456 152.688C246.052 163.103 238.699 170.003 230.441 174.393C228.055 175.66 225.574 176.739 223.021 177.621C207.994 182.839 191.176 181.455 177.965 178.7C168.698 176.766 159.293 175.576 149.837 175.142C147.14 175.021 144.441 174.96 141.739 174.961C137.572 174.966 133.406 175.121 129.241 175.426C102.173 177.416 60.6536 173.688 42.3867 136.686L88.0918 48.1145L105.102 91.8107L110.531 105.759L125.493 85.2165L133.219 74.6101L168.401 114.967L178.346 92.9949L247.192 149.209L251.032 152.342L251.456 152.688Z" fill="#F2F2F2"/>
<path opacity="0.1" d="M81.6067 76.5028L88.6324 61.092L98.3604 83.5322L89.9835 67.3104L81.6067 76.5028Z" fill="black"/>
<path opacity="0.1" d="M149.837 175.142C147.14 175.021 144.441 174.96 141.739 174.961L110.531 105.759L149.837 175.142Z" fill="black"/>
<path opacity="0.1" d="M125.493 85.2162L133.219 79.2063L168.347 119.761L132.678 85.1543L125.493 85.2162Z" fill="black"/>
<path opacity="0.1" d="M230.441 174.393C228.055 175.66 225.574 176.739 223.021 177.621L168.401 114.967L230.441 174.393Z" fill="black"/>
<path d="M130.246 28.378C130.694 28.378 131.057 28.0149 131.057 27.5669C131.057 27.119 130.694 26.7559 130.246 26.7559C129.799 26.7559 129.436 27.119 129.436 27.5669C129.436 28.0149 129.799 28.378 130.246 28.378Z" fill="#F2F2F2"/>
<path d="M107.818 56.2254C108.266 56.2254 108.629 55.8623 108.629 55.4144C108.629 54.9664 108.266 54.6033 107.818 54.6033C107.37 54.6033 107.007 54.9664 107.007 55.4144C107.007 55.8623 107.37 56.2254 107.818 56.2254Z" fill="#F2F2F2"/>
<path d="M162.673 60.8217C162.971 60.8217 163.213 60.5796 163.213 60.281C163.213 59.9823 162.971 59.7402 162.673 59.7402C162.374 59.7402 162.132 59.9823 162.132 60.281C162.132 60.5796 162.374 60.8217 162.673 60.8217Z" fill="#F2F2F2"/>
<path d="M49.1801 72.9879C49.4786 72.9879 49.7205 72.7459 49.7205 72.4472C49.7205 72.1486 49.4786 71.9065 49.1801 71.9065C48.8816 71.9065 48.6396 72.1486 48.6396 72.4472C48.6396 72.7459 48.8816 72.9879 49.1801 72.9879Z" fill="#F2F2F2"/>
<path d="M165.915 27.2965C166.214 27.2965 166.456 27.0545 166.456 26.7558C166.456 26.4572 166.214 26.2151 165.915 26.2151C165.617 26.2151 165.375 26.4572 165.375 26.7558C165.375 27.0545 165.617 27.2965 165.915 27.2965Z" fill="#F2F2F2"/>
<path d="M199.423 53.2514C199.721 53.2514 199.963 53.0093 199.963 52.7106C199.963 52.412 199.721 52.1699 199.423 52.1699C199.124 52.1699 198.882 52.412 198.882 52.7106C198.882 53.0093 199.124 53.2514 199.423 53.2514Z" fill="#F2F2F2"/>
<path d="M232.39 94.3466C232.688 94.3466 232.93 94.1045 232.93 93.8059C232.93 93.5072 232.688 93.2651 232.39 93.2651C232.091 93.2651 231.849 93.5072 231.849 93.8059C231.849 94.1045 232.091 94.3466 232.39 94.3466Z" fill="#F2F2F2"/>
<path d="M82.6874 32.774H81.9416V32.0278H81.5417V32.774H80.7959V33.1744H81.5417V33.9204H81.9416V33.1744H82.6874V32.774Z" fill="#F2F2F2"/>
<path d="M229.147 114.694H228.401V113.948H228.001V114.694H227.256V115.095H228.001V115.841H228.401V115.095H229.147V114.694Z" fill="#F2F2F2"/>
<path d="M294 165.993C294 170.473 228.186 186 147 186C65.8141 186 0 170.473 0 165.993C0 161.513 65.8141 169.778 147 169.778C228.186 169.778 294 161.513 294 165.993Z" fill="#3F3D56"/>
<path opacity="0.1" d="M294 165.993C294 170.473 228.186 186 147 186C65.8141 186 0 170.473 0 165.993C0 161.513 65.8141 169.778 147 169.778C228.186 169.778 294 161.513 294 165.993Z" fill="black"/>
<path d="M147 174.104C228.186 174.104 294 170.473 294 165.993C294 161.514 228.186 157.882 147 157.882C65.8141 157.882 0 161.514 0 165.993C0 170.473 65.8141 174.104 147 174.104Z" fill="#3F3D56"/>
<path d="M37.0203 132.621C37.0203 147.584 46.4022 159.691 57.9964 159.691Z" fill="#3F3D56"/>
<path d="M57.9963 159.691C57.9963 144.56 68.466 132.317 81.4045 132.317Z" fill="#7A55CB"/>
<path d="M44.6204 133.977C44.6204 148.19 50.603 159.691 57.9965 159.691Z" fill="#7A55CB"/>
<path d="M57.9963 159.691C57.9963 140.357 70.0976 124.713 85.0525 124.713Z" fill="#3F3D56"/>
<path d="M53.5835 159.882C53.5835 159.882 56.5583 159.791 57.4548 159.152C58.3513 158.513 62.0307 157.75 62.2531 158.775C62.4755 159.799 66.7236 163.87 63.3651 163.897C60.0067 163.924 55.5615 163.373 54.6667 162.828C53.7719 162.283 53.5835 159.882 53.5835 159.882Z" fill="#A8A8A8"/>
<path opacity="0.2" d="M63.4251 163.54C60.0666 163.567 55.6214 163.017 54.7266 162.471C54.0452 162.056 53.7737 160.566 53.6828 159.878C53.6199 159.881 53.5835 159.882 53.5835 159.882C53.5835 159.882 53.7719 162.283 54.6667 162.828C55.5615 163.373 60.0066 163.924 63.3651 163.897C64.3346 163.889 64.6695 163.544 64.6511 163.033C64.5164 163.342 64.1466 163.534 63.4251 163.54Z" fill="black"/>
<path d="M194.945 142.498C194.945 152.78 201.392 161.1 209.359 161.1Z" fill="#3F3D56"/>
<path d="M209.359 161.1C209.359 150.703 216.553 142.289 225.443 142.289Z" fill="#7A55CB"/>
<path d="M200.167 143.43C200.167 153.197 204.278 161.1 209.359 161.1Z" fill="#7A55CB"/>
<path d="M209.359 161.1C209.359 147.814 217.674 137.064 227.95 137.064Z" fill="#3F3D56"/>
<path d="M206.326 161.231C206.326 161.231 208.371 161.168 208.987 160.729C209.603 160.29 212.131 159.766 212.284 160.47C212.437 161.174 215.356 163.971 213.048 163.989C210.74 164.008 207.686 163.63 207.071 163.255C206.456 162.88 206.326 161.231 206.326 161.231Z" fill="#A8A8A8"/>
<path opacity="0.2" d="M213.089 163.744C210.781 163.763 207.727 163.385 207.112 163.01C206.644 162.725 206.457 161.701 206.395 161.228C206.351 161.23 206.326 161.231 206.326 161.231C206.326 161.231 206.456 162.88 207.071 163.255C207.686 163.63 210.74 164.008 213.048 163.99C213.714 163.984 213.944 163.747 213.932 163.396C213.839 163.608 213.585 163.74 213.089 163.744Z" fill="black"/>
<path d="M241.527 167.274C241.527 167.274 244.596 166.806 245.445 166.032C246.293 165.259 250.009 164.008 250.367 165.041C250.726 166.074 255.635 169.758 252.16 170.207C248.685 170.655 244.012 170.642 243.017 170.189C242.022 169.736 241.527 167.274 241.527 167.274Z" fill="#A8A8A8"/>
<path opacity="0.2" d="M252.177 169.83C248.702 170.279 244.029 170.265 243.034 169.812C242.277 169.468 241.809 167.958 241.629 167.257C241.564 167.268 241.527 167.274 241.527 167.274C241.527 167.274 242.022 169.736 243.017 170.189C244.012 170.642 248.685 170.656 252.16 170.207C253.163 170.077 253.467 169.678 253.384 169.151C253.283 169.488 252.924 169.734 252.177 169.83Z" fill="black"/>
<path d="M165.986 167.052C165.986 167.052 168.576 166.657 169.292 166.004C170.009 165.351 173.144 164.295 173.447 165.167C173.749 166.039 177.893 169.148 174.96 169.527C172.027 169.906 168.083 169.894 167.243 169.512C166.404 169.13 165.986 167.052 165.986 167.052Z" fill="#A8A8A8"/>
<path opacity="0.2" d="M174.974 169.209C172.042 169.587 168.098 169.576 167.258 169.194C166.619 168.903 166.224 167.629 166.072 167.038C166.017 167.047 165.986 167.051 165.986 167.051C165.986 167.051 166.404 169.13 167.243 169.512C168.083 169.894 172.027 169.906 174.96 169.527C175.806 169.418 176.063 169.081 175.993 168.636C175.907 168.92 175.605 169.127 174.974 169.209Z" fill="black"/>
<path d="M33.072 165.757C33.072 165.757 35.0888 165.45 35.6464 164.942C36.2039 164.434 38.6451 163.612 38.8806 164.291C39.1162 164.969 42.3415 167.39 40.0583 167.685C37.7751 167.979 34.705 167.97 34.0512 167.673C33.3975 167.375 33.072 165.757 33.072 165.757Z" fill="#A8A8A8"/>
<path opacity="0.2" d="M40.0698 167.437C37.7866 167.732 34.7164 167.723 34.0627 167.425C33.5649 167.199 33.2576 166.207 33.1393 165.747C33.0967 165.754 33.072 165.757 33.072 165.757C33.072 165.757 33.3975 167.375 34.0512 167.673C34.705 167.97 37.7751 167.979 40.0583 167.684C40.7174 167.599 40.9169 167.337 40.8624 166.991C40.7961 167.212 40.5603 167.374 40.0698 167.437Z" fill="black"/>
<path opacity="0.1" d="M103.683 162.575C103.683 170.745 92.3001 168.218 78.3631 168.218C64.4262 168.218 53.2126 170.745 53.2126 162.575C53.2126 154.404 64.5938 152.627 78.5307 152.627C92.4676 152.627 103.683 154.404 103.683 162.575Z" fill="black"/>
<path d="M103.683 160.563C103.683 168.733 92.3001 166.206 78.3631 166.206C64.4262 166.206 53.2126 168.733 53.2126 160.563C53.2126 152.392 64.5938 150.615 78.5307 150.615C92.4676 150.615 103.683 152.392 103.683 160.563Z" fill="#3F3D56"/>
<path d="M118.057 154.623C119.474 155.071 120.795 155.778 121.953 156.709C122.041 156.763 122.104 156.849 122.13 156.949C122.16 157.173 121.86 157.265 121.643 157.327C121.003 157.512 120.595 158.113 120.124 158.583C119.653 159.054 118.896 159.423 118.346 159.047C118.202 158.937 118.076 158.804 117.973 158.654L115.652 155.622C116.439 155.182 117.267 154.819 118.123 154.537" fill="#F1F1F1"/>
</g>
<defs>
<clipPath id="clip0">
<rect width="294" height="186" fill="white"/>
</clipPath>
</defs>
</svg>
